HIERARCHY
ROOT hip
{
	OFFSET 0.000000 0.000000 0.000000 
	CHANNELS 6 Xposition Yposition Zposition Xrotation Zrotation Yrotation
	JOINT abdomen
	{
		OFFSET 0.000000 3.402643 0.000000 
		CHANNELS 3 Xrotation Zrotation Yrotation
		JOINT chest
		{
			OFFSET 0.000000 8.438565 -0.680529 
			CHANNELS 3 Xrotation Zrotation Yrotation
			JOINT neck
			{
				OFFSET 0.000000 10.207942 -0.272212 
				CHANNELS 3 Xrotation Zrotation Yrotation
				JOINT head
				{
					OFFSET 0.000000 3.130431 0.000000 
					CHANNELS 3 Xrotation Zrotation Yrotation
					End Site
					{
						OFFSET 0.000000 3.130435 0.000000 
					}
				}
			}
			JOINT lCollar
			{
				OFFSET 3.470700 6.669187 -0.816635 
				CHANNELS 3 Yrotation Zrotation Xrotation
				JOINT lShldr
				{
					OFFSET 3.198488 0.000000 0.000000 
					CHANNELS 3 Zrotation Yrotation Xrotation
					JOINT lForeArm
					{
						OFFSET 10.139888 0.000000 0.000000 
						CHANNELS 3 Yrotation Zrotation Xrotation
						JOINT lHand
						{
							OFFSET 8.370511 0.000000 0.000000 
							CHANNELS 3 Zrotation Yrotation Xrotation
							End Site
							{
								OFFSET 4.083176 0.000000 0.000000 
							}
						}
					}
				}
			}
			JOINT rCollar
			{
				OFFSET -3.470700 6.669187 -0.816635 
				CHANNELS 3 Yrotation Zrotation Xrotation
				JOINT rShldr
				{
					OFFSET -3.198488 0.000000 0.000000 
					CHANNELS 3 Zrotation Yrotation Xrotation
					JOINT rForeArm
					{
						OFFSET -10.139888 0.000000 0.000000 
						CHANNELS 3 Yrotation Zrotation Xrotation
						JOINT rHand
						{
							OFFSET -8.370511 0.000000 0.000000 
							CHANNELS 3 Zrotation Yrotation Xrotation
							End Site
							{
								OFFSET -4.083176 0.000000 0.000000 
							}
						}
					}
				}
			}
		}
	}
	JOINT lThigh
	{
		OFFSET 5.308129 -1.633274 1.361059 
		CHANNELS 3 Xrotation Zrotation Yrotation
		JOINT lShin
		{
			OFFSET -2.041588 -20.007561 0.000000 
			CHANNELS 3 Xrotation Zrotation Yrotation
			JOINT lFoot
			{
				OFFSET 0.000000 -19.190928 -1.224953 
				CHANNELS 3 Xrotation Yrotation Zrotation
				End Site
				{
					OFFSET 0.000000 -2.449906 4.627600 
				}
			}
		}
	}
	JOINT rThigh
	{
		OFFSET -5.308129 -1.633274 1.361059 
		CHANNELS 3 Xrotation Zrotation Yrotation
		JOINT rShin
		{
			OFFSET 2.041588 -20.007561 0.000000 
			CHANNELS 3 Xrotation Zrotation Yrotation
			JOINT rFoot
			{
				OFFSET 0.000000 -19.190928 -1.224953 
				CHANNELS 3 Xrotation Yrotation Zrotation
				End Site
				{
					OFFSET 0.000000 -2.449906 4.627600 
				}
			}
		}
	}
}
MOTION
Frames: 20
Frame Time: 0.033333
5.893289 51.384399 4.201268 -2.620876 -4.892371 -0.529587 0.000000 0.000000 0.000000 8.874425 -1.253095 5.899799 30.211275 8.681322 0.494479 -27.537914 0.048815 1.347664 -20.002138 9.892339 24.991650 -87.993141 9.433977 -2.669965 -59.907677 9.238266 80.255035 -16.472862 -5.708405 -55.949287 -2.064597 6.084604 24.991749 59.810047 -1.160019 66.203415 33.005524 -49.755749 34.598000 38.740528 7.372477 -80.400024 13.432765 -0.184278 16.695965 19.222544 5.671378 0.813053 13.904008 -20.963957 -1.430930 -4.176799 -0.663674 1.073559 27.921402 -2.865122 0.850950 21.694698 -11.935025 4.418866 
5.911235 51.557323 4.041169 -3.564124 -4.599232 -0.735545 0.000000 0.000000 0.000000 10.904392 -1.797695 5.705823 29.674423 8.710618 0.494481 -27.833679 -0.058571 1.611327 -20.315886 9.597748 24.997221 -87.629333 9.237776 -2.902830 -59.746227 9.598656 79.154541 -16.017447 -5.144472 -56.204105 -0.794749 6.864206 24.946918 59.495838 -0.756150 65.943542 31.678165 -49.692989 33.656116 39.105988 7.214119 -80.430481 14.266626 -0.360813 16.587610 19.144024 5.251514 0.729225 14.090879 -20.481346 -1.175067 -1.429874 -1.138238 0.870379 22.663097 -1.855403 0.563800 22.694399 -14.550279 2.303277 
5.977133 51.706478 3.991721 -4.316200 -4.667876 -0.363309 0.000000 0.000000 0.000000 12.601453 -1.739568 5.646961 29.053209 8.798479 0.515280 -27.899168 0.048813 1.435555 -21.088858 9.395254 24.989912 -87.847565 9.025134 -2.768902 -59.428368 10.701342 77.614212 -14.952950 -5.339499 -56.378914 -0.064666 7.165106 24.878685 59.218609 -1.098710 65.827644 30.948219 -49.190758 33.215099 39.664360 6.722073 -80.468971 15.239341 -0.310664 16.493763 18.506678 5.064592 0.746112 14.505167 -20.531778 -0.652420 2.502816 -1.713011 0.566460 17.223360 -0.422585 0.476237 23.287077 -15.986983 1.632835 
6.045968 51.789223 4.034228 -4.134572 -5.429686 0.038887 0.000000 0.000000 0.000000 12.684001 -0.680010 5.869537 28.845057 8.622720 0.504130 -27.800310 0.136697 1.015646 -21.377625 8.896842 24.998573 -87.847443 9.044651 -2.768175 -59.146446 11.178457 76.438911 -14.324485 -5.599110 -56.457905 -0.065876 6.885746 24.885027 59.084686 -1.652553 65.816574 30.822933 -48.395123 33.682045 40.156670 6.900754 -80.415398 15.507895 0.373676 16.728361 17.627167 4.986713 0.778849 14.942657 -20.799026 -0.120761 4.798044 -1.374295 0.625424 15.217915 0.573490 0.520860 22.131718 -16.852306 2.033500 
6.090867 51.875561 4.203533 -4.378005 -6.581828 0.451855 0.000000 0.000000 0.000000 12.771027 0.873731 6.221466 28.913742 8.193094 0.464042 -27.817614 0.419896 0.634820 -21.067883 8.309011 24.990177 -87.689301 9.116157 -2.877875 -58.742073 11.174690 75.091431 -14.201850 -5.600577 -56.525589 -0.169878 6.526646 24.890902 58.875698 -2.602962 65.812531 31.463970 -47.732937 35.187744 40.734634 7.414026 -80.290123 16.615854 1.544532 17.038858 16.435932 4.713847 0.806080 15.362477 -21.154202 0.247340 7.852582 -0.233637 0.891446 14.520115 0.671521 0.510784 20.074051 -15.989675 2.908870 
6.017938 51.878227 4.345452 -3.644866 -7.949189 0.157450 0.000000 0.000000 0.000000 11.588819 2.492966 6.637298 29.027897 7.402153 0.414287 -27.633438 0.712883 0.263773 -19.540535 8.185355 24.994385 -87.619598 9.219157 -2.911820 -58.357254 10.775537 73.613350 -14.838560 -5.568573 -56.527451 0.197975 5.899645 24.857510 59.207691 -3.794285 66.191895 32.241085 -47.500744 37.669991 41.527298 8.191936 -80.105469 16.589445 3.359976 17.708113 15.852925 3.826906 0.618178 15.510419 -21.273375 0.543918 10.044073 1.884411 1.503590 16.041962 -1.274699 0.203775 17.760597 -10.068377 6.587322 
6.040295 51.840744 4.530548 -2.892341 -7.861267 0.226506 0.000000 0.000000 0.000000 10.031828 2.589503 6.725976 29.500298 7.060390 0.383973 -27.032209 0.624999 -0.087885 -18.756319 8.104694 24.991089 -87.458527 9.682245 -3.011847 -58.262737 10.102484 72.830650 -14.488919 -5.311137 -56.734772 -0.043626 5.627727 24.871395 58.912811 -5.112498 66.177605 34.371624 -46.998085 40.463215 41.900448 7.938958 -80.087120 16.299437 3.340945 17.703518 15.384180 3.599666 0.603570 15.468165 -21.493784 0.829906 10.826050 2.343134 1.626433 18.990019 -2.200222 0.234839 15.574581 -10.089632 8.056846 
5.983239 51.710510 4.709201 -1.645056 -8.085816 -0.316261 0.000000 0.000000 0.000000 7.720527 2.879518 6.883939 30.189405 6.249913 0.305188 -26.615316 1.210924 0.273583 -16.792231 8.517733 24.991840 -87.167892 10.216559 -3.191339 -58.291821 8.390440 72.958153 -13.986881 -5.120195 -56.939163 0.326067 5.087914 24.845789 59.506775 -6.427292 66.754059 35.054337 -47.255119 42.427654 41.918415 8.286895 -79.954132 15.444875 3.886901 17.965122 15.428226 3.046984 0.479451 15.117712 -21.525229 0.771832 10.006826 3.388155 1.951445 23.151201 -3.679726 0.254582 14.379806 -10.292671 7.836346 
5.825926 51.612358 4.892659 -1.384958 -8.856348 -0.900628 0.000000 0.000000 0.000000 6.432271 3.585693 7.094242 31.022562 5.732361 0.265279 -26.630268 1.718490 0.996817 -14.920445 8.935482 24.991907 -86.867409 10.646183 -3.371338 -58.141228 7.170515 73.260139 -13.845706 -5.506682 -56.902237 0.730547 4.704112 24.826746 60.449135 -7.311970 67.514534 34.065472 -47.657623 42.281345 41.520821 8.918040 -79.805725 15.756502 5.449220 18.528740 15.612679 1.875288 0.172001 14.708135 -21.532379 0.765322 9.074591 5.445247 2.548193 29.591948 -6.620467 0.214534 15.877321 -6.371566 12.174688 
5.724380 51.495777 5.024386 -1.647131 -9.392021 -1.337337 0.000000 0.000000 0.000000 5.957876 4.098255 7.216452 31.623680 5.390580 0.236091 -26.512012 2.361935 1.935573 -13.680952 9.289598 24.996399 -86.665855 11.009426 -3.499113 -58.326660 6.236555 73.957619 -14.273696 -5.818426 -56.742718 0.901867 4.310177 24.822056 61.190990 -7.886757 68.117004 33.419277 -48.191669 41.500282 41.403698 8.822837 -79.872887 16.606005 6.562819 18.894281 15.606967 0.876337 -0.034250 14.549727 -21.555813 0.537795 7.792839 6.767468 2.964831 35.467220 -8.266128 0.371922 18.657190 -3.456446 16.492319 
5.710562 51.429031 5.087632 -2.255295 -9.547919 -1.417632 0.000000 0.000000 0.000000 6.096777 4.310836 7.277062 32.152531 5.527293 0.245827 -26.889709 2.371598 2.003875 -13.808047 8.813533 24.987764 -86.305191 11.402511 -3.739143 -58.470230 6.261127 74.075447 -14.810464 -6.087448 -56.567623 0.539348 4.627163 24.837379 60.928619 -8.256277 67.984032 33.620232 -48.570698 41.042496 41.585297 8.173864 -80.067581 17.682922 7.021668 18.997828 15.334295 0.234845 -0.158988 14.780719 -21.701172 0.315584 6.249643 7.147915 3.117157 40.784290 -8.795735 0.798324 21.812561 -0.354540 21.522991 
5.664486 51.379353 5.076937 -2.742670 -10.102290 -1.846476 0.000000 0.000000 0.000000 6.354974 4.881188 7.390441 32.622665 5.624945 0.255555 -26.888533 2.283227 2.355537 -13.978054 7.974715 24.991358 -85.558289 11.791123 -4.222273 -58.322243 6.255157 73.680611 -15.325360 -6.404178 -56.383533 0.073285 4.724570 24.857979 61.044720 -7.811146 68.004356 32.792820 -48.792862 39.461807 41.479744 7.271146 -80.331635 18.594664 7.899601 19.271261 15.189309 -0.478505 -0.313710 15.081759 -21.651255 -0.214483 3.679922 7.750279 3.342412 45.137150 -8.386081 1.310357 24.983595 2.334423 28.341175 
5.638605 51.339397 4.966483 -3.011009 -10.560073 -2.007242 0.000000 0.000000 0.000000 6.779007 5.238699 7.463731 32.714458 6.035087 0.275002 -26.883688 1.902650 2.384416 -14.498853 8.215637 24.997316 -85.771667 11.390321 -4.078675 -57.666557 6.493454 73.008835 -15.538418 -6.474791 -56.333858 -0.242697 4.590062 24.877428 61.496655 -7.167219 68.220596 31.697029 -49.180908 37.853474 41.146576 7.134341 -80.407906 18.747887 8.388493 19.470751 15.376719 -0.410200 -0.313763 15.263472 -21.791031 -0.655196 1.855622 7.978505 3.455672 46.085575 -7.352824 1.642676 25.121828 1.742194 27.146997 
5.612982 51.337524 4.795189 -3.172831 -11.036627 -2.250319 0.000000 0.000000 0.000000 7.412893 5.625130 7.537381 32.699589 6.328036 0.305195 -27.094070 1.522087 2.413074 -15.030181 8.322372 24.988974 -85.896141 10.953502 -3.994968 -57.028023 6.787027 72.372223 -15.705337 -6.012812 -56.472488 -0.375182 4.572176 24.888594 61.857063 -6.401619 68.346741 30.575205 -49.673088 36.470161 40.865795 7.492558 -80.407768 18.394773 8.798518 19.653917 16.114346 -0.088052 -0.285819 15.033937 -21.793394 -1.016334 0.605726 8.270635 3.550200 44.453384 -7.020098 1.560083 24.606810 2.970327 25.922930 
5.519816 51.332882 4.494671 -2.425693 -12.335088 -3.179743 0.000000 0.000000 0.000000 7.569171 6.840546 7.830584 32.559875 6.162034 0.285760 -27.307686 1.424282 2.627840 -15.164027 8.684661 24.996195 -86.090645 10.391547 -3.873236 -56.594795 6.711493 72.529648 -15.305801 -4.749227 -56.850632 -0.005115 4.333895 24.866907 62.515656 -5.407719 68.639473 29.380278 -50.488461 35.373455 41.049686 8.006493 -80.409050 16.731613 10.204311 20.348885 17.595644 0.299203 -0.281894 14.349862 -21.518497 -1.316883 -1.083851 9.755675 4.072234 38.973717 -6.501084 1.113338 20.034323 -1.451486 14.670273 
5.575340 51.340267 4.197308 -1.906527 -11.863804 -3.453205 0.000000 0.000000 0.000000 8.097578 6.204453 7.653365 31.859800 6.337801 0.305196 -27.299871 1.004902 2.500471 -15.668791 9.111340 24.994173 -86.541809 9.674294 -3.584271 -56.509003 7.204977 72.915108 -14.668607 -4.389372 -56.976971 0.178644 4.310812 24.853781 62.680714 -4.526841 68.606789 29.267710 -51.116692 35.432961 41.321602 8.166413 -80.423416 14.896174 9.490514 20.162268 18.912071 1.121645 -0.217594 13.814476 -21.235409 -1.266066 -1.844566 9.028040 3.861324 34.180241 -6.070444 0.733261 15.795527 -3.384513 6.622884 
5.543485 51.400112 3.988569 -1.691297 -11.707354 -4.219152 0.000000 0.000000 0.000000 8.886593 5.780290 7.518931 31.140114 5.810485 0.265283 -27.198956 1.228662 3.106220 -15.236317 9.134852 24.991011 -86.338493 9.344836 -3.710020 -56.532803 7.172665 73.518433 -14.088802 -4.948626 -56.840134 1.362266 4.413149 24.785843 63.186852 -4.019139 68.873375 28.180489 -51.959614 34.577267 41.276447 8.227115 -80.406807 14.079452 9.433208 20.189842 19.777397 1.024319 -0.257779 13.375129 -20.429440 -1.258937 -1.308380 8.901834 3.800327 28.723186 -5.996159 0.196309 13.890830 -3.608480 0.629482 
5.542513 51.491909 3.817935 -1.633617 -11.368390 -4.732257 0.000000 0.000000 0.000000 9.933682 5.182091 7.335528 29.887501 5.449165 0.255541 -27.353901 1.638290 3.057903 -14.839431 9.161395 24.993113 -86.126328 8.959238 -3.848643 -56.670334 7.140201 74.110573 -13.708838 -6.062453 -56.546993 2.716574 4.421526 24.729643 64.117195 -3.496854 69.399529 25.643110 -52.600292 32.148251 40.779140 8.193022 -80.378830 13.770092 9.206522 20.098494 19.937660 0.662759 -0.348718 13.545877 -19.608089 -1.155613 0.867976 8.010020 3.481580 21.412338 -5.168707 -0.205766 16.267942 -1.109744 3.407306 
5.544226 51.556301 3.664942 -0.862758 -10.896350 -5.033003 0.000000 0.000000 0.000000 9.983534 4.524927 7.181231 28.597700 5.283151 0.255525 -27.054760 2.125896 3.049123 -14.759738 9.485325 24.995123 -86.522285 8.620455 -3.595568 -56.835934 7.784369 73.775505 -13.835711 -6.446034 -56.429626 3.404715 4.307351 24.704630 64.776314 -2.885269 69.728134 24.070023 -52.333450 30.320658 40.480827 7.392394 -80.477348 12.784304 8.845368 20.008587 19.876236 0.376603 -0.401210 14.017850 -19.129044 -1.054918 2.175447 7.053212 3.172861 16.977562 -4.369786 -0.410615 16.915974 0.550821 3.995519 
5.588746 51.597683 3.572681 0.003998 -9.985109 -4.800426 0.000000 0.000000 0.000000 9.452270 3.586598 6.976676 27.710020 5.302678 0.265251 -26.781080 2.117059 2.540936 -14.770601 9.799801 24.989723 -86.711937 8.247803 -3.469293 -57.115566 7.919843 73.453537 -14.703972 -6.234928 -56.320938 3.654575 4.045746 24.690903 65.197990 -2.605543 69.967178 23.752470 -51.801529 29.584736 40.749752 6.291436 -80.640053 11.698889 7.852108 19.651537 19.446083 0.429697 -0.368009 14.786692 -19.061913 -0.969363 3.564486 5.644453 2.722903 14.029476 -3.771551 -0.542899 16.752382 0.427175 1.013781 
